<mxfile host="Electron" modified="2023-12-25T13:48:28.378Z" agent="Mozilla/5.0 (X11; Linux x86_64) AppleWebKit/537.36 (KHTML, like Gecko) draw.io/22.1.2 Chrome/114.0.5735.289 Electron/25.9.4 Safari/537.36" etag="Of8TgA6YwypsBhKK3nhX" version="22.1.2" type="device">
  <diagram id="C5RBs43oDa-KdzZeNtuy" name="Page-1">
    <mxGraphModel dx="993" dy="640" grid="1" gridSize="10" guides="1" tooltips="1" connect="1" arrows="1" fold="1" page="1" pageScale="1" pageWidth="827" pageHeight="1169" math="0" shadow="0">
      <root>
        <mxCell id="WIyWlLk6GJQsqaUBKTNV-0" />
        <mxCell id="WIyWlLk6GJQsqaUBKTNV-1" parent="WIyWlLk6GJQsqaUBKTNV-0" />
        <mxCell id="_diJCjssBpCCi8u7aCQL-16" value="" style="endArrow=block;html=1;rounded=0;endFill=0;dashed=1;exitX=0.5;exitY=0;exitDx=0;exitDy=0;startSize=14;endSize=14;" edge="1" parent="WIyWlLk6GJQsqaUBKTNV-1">
          <mxGeometry width="50" height="50" relative="1" as="geometry">
            <mxPoint x="819.9999999999998" y="243" as="sourcePoint" />
            <mxPoint x="730" y="133" as="targetPoint" />
          </mxGeometry>
        </mxCell>
        <mxCell id="v6Yu-utYaVJWusc_bSwy-2" value="&lt;font style=&quot;font-size: 14px;&quot;&gt;Client&lt;/font&gt;" style="rounded=1;whiteSpace=wrap;html=1;" parent="WIyWlLk6GJQsqaUBKTNV-1" vertex="1">
          <mxGeometry x="645" y="474" width="110" height="31" as="geometry" />
        </mxCell>
        <mxCell id="v6Yu-utYaVJWusc_bSwy-4" value="AnnouncementPlayer" style="swimlane;fontStyle=0;align=center;verticalAlign=top;childLayout=stackLayout;horizontal=1;startSize=26;horizontalStack=0;resizeParent=1;resizeLast=0;collapsible=1;marginBottom=0;rounded=0;shadow=0;strokeWidth=1;" parent="WIyWlLk6GJQsqaUBKTNV-1" vertex="1">
          <mxGeometry x="320" y="65" width="160" height="60" as="geometry">
            <mxRectangle x="340" y="380" width="170" height="26" as="alternateBounds" />
          </mxGeometry>
        </mxCell>
        <mxCell id="v6Yu-utYaVJWusc_bSwy-5" value="+ play()" style="text;align=left;verticalAlign=top;spacingLeft=4;spacingRight=4;overflow=hidden;rotatable=0;points=[[0,0.5],[1,0.5]];portConstraint=eastwest;" parent="v6Yu-utYaVJWusc_bSwy-4" vertex="1">
          <mxGeometry y="26" width="160" height="24" as="geometry" />
        </mxCell>
        <mxCell id="_diJCjssBpCCi8u7aCQL-0" value="&quot;Interface&quot;&#xa;ICommand" style="swimlane;fontStyle=0;align=center;verticalAlign=top;childLayout=stackLayout;horizontal=1;startSize=40;horizontalStack=0;resizeParent=1;resizeLast=0;collapsible=1;marginBottom=0;rounded=0;shadow=0;strokeWidth=1;" vertex="1" parent="WIyWlLk6GJQsqaUBKTNV-1">
          <mxGeometry x="620" y="63" width="160" height="70" as="geometry">
            <mxRectangle x="340" y="380" width="170" height="26" as="alternateBounds" />
          </mxGeometry>
        </mxCell>
        <mxCell id="_diJCjssBpCCi8u7aCQL-1" value="+ execute()" style="text;align=left;verticalAlign=top;spacingLeft=4;spacingRight=4;overflow=hidden;rotatable=0;points=[[0,0.5],[1,0.5]];portConstraint=eastwest;" vertex="1" parent="_diJCjssBpCCi8u7aCQL-0">
          <mxGeometry y="40" width="160" height="30" as="geometry" />
        </mxCell>
        <mxCell id="_diJCjssBpCCi8u7aCQL-2" value="EmergencyAnnouncementCommand" style="swimlane;fontStyle=0;align=center;verticalAlign=top;childLayout=stackLayout;horizontal=1;startSize=40;horizontalStack=0;resizeParent=1;resizeLast=0;collapsible=1;marginBottom=0;rounded=0;shadow=0;strokeWidth=1;" vertex="1" parent="WIyWlLk6GJQsqaUBKTNV-1">
          <mxGeometry x="190" y="240" width="240" height="110" as="geometry">
            <mxRectangle x="340" y="380" width="170" height="26" as="alternateBounds" />
          </mxGeometry>
        </mxCell>
        <mxCell id="_diJCjssBpCCi8u7aCQL-10" value="" style="endArrow=none;html=1;rounded=0;exitX=0;exitY=0.5;exitDx=0;exitDy=0;entryX=1;entryY=0.5;entryDx=0;entryDy=0;" edge="1" parent="_diJCjssBpCCi8u7aCQL-2" source="_diJCjssBpCCi8u7aCQL-3" target="_diJCjssBpCCi8u7aCQL-3">
          <mxGeometry width="50" height="50" relative="1" as="geometry">
            <mxPoint x="330" y="10" as="sourcePoint" />
            <mxPoint x="380" y="-40" as="targetPoint" />
          </mxGeometry>
        </mxCell>
        <mxCell id="_diJCjssBpCCi8u7aCQL-3" value="- messege: str&#xa;&#xa;+ execute()" style="text;align=left;verticalAlign=top;spacingLeft=4;spacingRight=4;overflow=hidden;rotatable=0;points=[[0,0.5],[1,0.5]];portConstraint=eastwest;" vertex="1" parent="_diJCjssBpCCi8u7aCQL-2">
          <mxGeometry y="40" width="240" height="50" as="geometry" />
        </mxCell>
        <mxCell id="_diJCjssBpCCi8u7aCQL-4" value="InformationAnnouncementCommand" style="swimlane;fontStyle=0;align=center;verticalAlign=top;childLayout=stackLayout;horizontal=1;startSize=40;horizontalStack=0;resizeParent=1;resizeLast=0;collapsible=1;marginBottom=0;rounded=0;shadow=0;strokeWidth=1;" vertex="1" parent="WIyWlLk6GJQsqaUBKTNV-1">
          <mxGeometry x="450" y="240" width="240" height="110" as="geometry">
            <mxRectangle x="340" y="380" width="170" height="26" as="alternateBounds" />
          </mxGeometry>
        </mxCell>
        <mxCell id="_diJCjssBpCCi8u7aCQL-5" value="- messege: str&#xa;&#xa;+ execute()" style="text;align=left;verticalAlign=top;spacingLeft=4;spacingRight=4;overflow=hidden;rotatable=0;points=[[0,0.5],[1,0.5]];portConstraint=eastwest;" vertex="1" parent="_diJCjssBpCCi8u7aCQL-4">
          <mxGeometry y="40" width="240" height="70" as="geometry" />
        </mxCell>
        <mxCell id="_diJCjssBpCCi8u7aCQL-11" value="" style="endArrow=none;html=1;rounded=0;exitX=0;exitY=0.5;exitDx=0;exitDy=0;entryX=1;entryY=0.5;entryDx=0;entryDy=0;" edge="1" parent="_diJCjssBpCCi8u7aCQL-4">
          <mxGeometry width="50" height="50" relative="1" as="geometry">
            <mxPoint y="68" as="sourcePoint" />
            <mxPoint x="240" y="68" as="targetPoint" />
          </mxGeometry>
        </mxCell>
        <mxCell id="_diJCjssBpCCi8u7aCQL-6" value="DispatcherAnnouncementCommand" style="swimlane;fontStyle=0;align=center;verticalAlign=top;childLayout=stackLayout;horizontal=1;startSize=40;horizontalStack=0;resizeParent=1;resizeLast=0;collapsible=1;marginBottom=0;rounded=0;shadow=0;strokeWidth=1;" vertex="1" parent="WIyWlLk6GJQsqaUBKTNV-1">
          <mxGeometry x="700" y="240" width="240" height="110" as="geometry">
            <mxRectangle x="340" y="380" width="170" height="26" as="alternateBounds" />
          </mxGeometry>
        </mxCell>
        <mxCell id="_diJCjssBpCCi8u7aCQL-7" value="- messege: str&#xa;&#xa;+ execute()" style="text;align=left;verticalAlign=top;spacingLeft=4;spacingRight=4;overflow=hidden;rotatable=0;points=[[0,0.5],[1,0.5]];portConstraint=eastwest;" vertex="1" parent="_diJCjssBpCCi8u7aCQL-6">
          <mxGeometry y="40" width="240" height="70" as="geometry" />
        </mxCell>
        <mxCell id="_diJCjssBpCCi8u7aCQL-12" value="" style="endArrow=none;html=1;rounded=0;exitX=0;exitY=0.5;exitDx=0;exitDy=0;entryX=1;entryY=0.5;entryDx=0;entryDy=0;" edge="1" parent="_diJCjssBpCCi8u7aCQL-6">
          <mxGeometry width="50" height="50" relative="1" as="geometry">
            <mxPoint y="70" as="sourcePoint" />
            <mxPoint x="240" y="70" as="targetPoint" />
          </mxGeometry>
        </mxCell>
        <mxCell id="_diJCjssBpCCi8u7aCQL-8" value="MarketingAnnouncementCommand" style="swimlane;fontStyle=0;align=center;verticalAlign=top;childLayout=stackLayout;horizontal=1;startSize=40;horizontalStack=0;resizeParent=1;resizeLast=0;collapsible=1;marginBottom=0;rounded=0;shadow=0;strokeWidth=1;" vertex="1" parent="WIyWlLk6GJQsqaUBKTNV-1">
          <mxGeometry x="950" y="240" width="240" height="110" as="geometry">
            <mxRectangle x="340" y="380" width="170" height="26" as="alternateBounds" />
          </mxGeometry>
        </mxCell>
        <mxCell id="_diJCjssBpCCi8u7aCQL-9" value="- messege: str&#xa;&#xa;+ execute()" style="text;align=left;verticalAlign=top;spacingLeft=4;spacingRight=4;overflow=hidden;rotatable=0;points=[[0,0.5],[1,0.5]];portConstraint=eastwest;" vertex="1" parent="_diJCjssBpCCi8u7aCQL-8">
          <mxGeometry y="40" width="240" height="70" as="geometry" />
        </mxCell>
        <mxCell id="_diJCjssBpCCi8u7aCQL-13" value="" style="endArrow=none;html=1;rounded=0;exitX=0;exitY=0.5;exitDx=0;exitDy=0;entryX=1;entryY=0.5;entryDx=0;entryDy=0;" edge="1" parent="_diJCjssBpCCi8u7aCQL-8">
          <mxGeometry width="50" height="50" relative="1" as="geometry">
            <mxPoint y="70" as="sourcePoint" />
            <mxPoint x="240" y="70" as="targetPoint" />
          </mxGeometry>
        </mxCell>
        <mxCell id="_diJCjssBpCCi8u7aCQL-14" value="" style="endArrow=block;html=1;rounded=0;endFill=0;dashed=1;exitX=0.5;exitY=0;exitDx=0;exitDy=0;startSize=14;endSize=14;entryX=0.025;entryY=0.989;entryDx=0;entryDy=0;entryPerimeter=0;" edge="1" parent="WIyWlLk6GJQsqaUBKTNV-1" source="_diJCjssBpCCi8u7aCQL-2" target="_diJCjssBpCCi8u7aCQL-1">
          <mxGeometry width="50" height="50" relative="1" as="geometry">
            <mxPoint x="650" y="220" as="sourcePoint" />
            <mxPoint x="630" y="140" as="targetPoint" />
          </mxGeometry>
        </mxCell>
        <mxCell id="_diJCjssBpCCi8u7aCQL-15" value="" style="endArrow=block;html=1;rounded=0;endFill=0;dashed=1;exitX=0.5;exitY=0;exitDx=0;exitDy=0;startSize=14;endSize=14;entryX=0.25;entryY=1;entryDx=0;entryDy=0;entryPerimeter=0;" edge="1" parent="WIyWlLk6GJQsqaUBKTNV-1" source="_diJCjssBpCCi8u7aCQL-4" target="_diJCjssBpCCi8u7aCQL-1">
          <mxGeometry width="50" height="50" relative="1" as="geometry">
            <mxPoint x="320" y="250" as="sourcePoint" />
            <mxPoint x="634" y="140" as="targetPoint" />
          </mxGeometry>
        </mxCell>
        <mxCell id="_diJCjssBpCCi8u7aCQL-17" value="" style="endArrow=block;html=1;rounded=0;endFill=0;dashed=1;exitX=0.25;exitY=0;exitDx=0;exitDy=0;startSize=14;endSize=14;entryX=0.888;entryY=0.983;entryDx=0;entryDy=0;entryPerimeter=0;" edge="1" parent="WIyWlLk6GJQsqaUBKTNV-1" source="_diJCjssBpCCi8u7aCQL-8">
          <mxGeometry width="50" height="50" relative="1" as="geometry">
            <mxPoint x="1072" y="241" as="sourcePoint" />
            <mxPoint x="764.0799999999999" y="133.49" as="targetPoint" />
          </mxGeometry>
        </mxCell>
        <mxCell id="_diJCjssBpCCi8u7aCQL-18" value="" style="endArrow=openThin;html=1;rounded=0;endSize=14;startSize=14;dashed=1;endFill=0;exitX=0.25;exitY=0;exitDx=0;exitDy=0;entryX=0.75;entryY=1;entryDx=0;entryDy=0;" edge="1" parent="WIyWlLk6GJQsqaUBKTNV-1" source="v6Yu-utYaVJWusc_bSwy-2" target="_diJCjssBpCCi8u7aCQL-2">
          <mxGeometry width="50" height="50" relative="1" as="geometry">
            <mxPoint x="490" y="474" as="sourcePoint" />
            <mxPoint x="540" y="424" as="targetPoint" />
          </mxGeometry>
        </mxCell>
        <mxCell id="_diJCjssBpCCi8u7aCQL-20" value="" style="endArrow=openThin;html=1;rounded=0;endSize=14;startSize=14;dashed=1;endFill=0;exitX=0.75;exitY=0;exitDx=0;exitDy=0;entryX=0.531;entryY=1.024;entryDx=0;entryDy=0;entryPerimeter=0;" edge="1" parent="WIyWlLk6GJQsqaUBKTNV-1" source="v6Yu-utYaVJWusc_bSwy-2" target="_diJCjssBpCCi8u7aCQL-9">
          <mxGeometry width="50" height="50" relative="1" as="geometry">
            <mxPoint x="683" y="484" as="sourcePoint" />
            <mxPoint x="1060" y="370" as="targetPoint" />
          </mxGeometry>
        </mxCell>
        <mxCell id="_diJCjssBpCCi8u7aCQL-21" value="" style="endArrow=openThin;html=1;rounded=0;endSize=14;startSize=14;dashed=1;endFill=0;exitX=0.5;exitY=0;exitDx=0;exitDy=0;entryX=0.497;entryY=0.986;entryDx=0;entryDy=0;entryPerimeter=0;" edge="1" parent="WIyWlLk6GJQsqaUBKTNV-1" source="v6Yu-utYaVJWusc_bSwy-2" target="_diJCjssBpCCi8u7aCQL-7">
          <mxGeometry width="50" height="50" relative="1" as="geometry">
            <mxPoint x="738" y="484" as="sourcePoint" />
            <mxPoint x="1087" y="362" as="targetPoint" />
          </mxGeometry>
        </mxCell>
        <mxCell id="_diJCjssBpCCi8u7aCQL-22" value="" style="endArrow=openThin;html=1;rounded=0;endSize=14;startSize=14;dashed=1;endFill=0;exitX=0.5;exitY=0;exitDx=0;exitDy=0;entryX=0.536;entryY=1.014;entryDx=0;entryDy=0;entryPerimeter=0;" edge="1" parent="WIyWlLk6GJQsqaUBKTNV-1" source="v6Yu-utYaVJWusc_bSwy-2" target="_diJCjssBpCCi8u7aCQL-5">
          <mxGeometry width="50" height="50" relative="1" as="geometry">
            <mxPoint x="710" y="484" as="sourcePoint" />
            <mxPoint x="829" y="359" as="targetPoint" />
          </mxGeometry>
        </mxCell>
        <mxCell id="_diJCjssBpCCi8u7aCQL-25" style="edgeStyle=orthogonalEdgeStyle;rounded=0;orthogonalLoop=1;jettySize=auto;html=1;entryX=0;entryY=0.25;entryDx=0;entryDy=0;endArrow=openThin;endFill=0;endSize=14;startSize=14;exitX=1;exitY=0.25;exitDx=0;exitDy=0;" edge="1" parent="WIyWlLk6GJQsqaUBKTNV-1" source="v6Yu-utYaVJWusc_bSwy-4" target="_diJCjssBpCCi8u7aCQL-0">
          <mxGeometry relative="1" as="geometry">
            <mxPoint x="510" y="80" as="sourcePoint" />
          </mxGeometry>
        </mxCell>
        <mxCell id="_diJCjssBpCCi8u7aCQL-26" style="edgeStyle=orthogonalEdgeStyle;rounded=0;orthogonalLoop=1;jettySize=auto;html=1;entryX=0;entryY=0.5;entryDx=0;entryDy=0;endArrow=openThin;endFill=0;endSize=14;startSize=14;exitX=0;exitY=0.5;exitDx=0;exitDy=0;" edge="1" parent="WIyWlLk6GJQsqaUBKTNV-1" source="v6Yu-utYaVJWusc_bSwy-2">
          <mxGeometry relative="1" as="geometry">
            <mxPoint x="645" y="458.5" as="sourcePoint" />
            <mxPoint x="320" y="82.00000000000011" as="targetPoint" />
            <Array as="points">
              <mxPoint x="140" y="490" />
              <mxPoint x="140" y="82" />
            </Array>
          </mxGeometry>
        </mxCell>
        <mxCell id="_diJCjssBpCCi8u7aCQL-27" style="edgeStyle=orthogonalEdgeStyle;rounded=0;orthogonalLoop=1;jettySize=auto;html=1;endArrow=openThin;endFill=0;endSize=14;startSize=14;exitX=1;exitY=0.5;exitDx=0;exitDy=0;entryX=1;entryY=0.25;entryDx=0;entryDy=0;" edge="1" parent="WIyWlLk6GJQsqaUBKTNV-1" source="v6Yu-utYaVJWusc_bSwy-2" target="_diJCjssBpCCi8u7aCQL-29">
          <mxGeometry relative="1" as="geometry">
            <mxPoint x="1746" y="474" as="sourcePoint" />
            <mxPoint x="1150" y="110" as="targetPoint" />
            <Array as="points">
              <mxPoint x="1241" y="490" />
              <mxPoint x="1241" y="80" />
            </Array>
          </mxGeometry>
        </mxCell>
        <mxCell id="_diJCjssBpCCi8u7aCQL-31" style="edgeStyle=orthogonalEdgeStyle;rounded=0;orthogonalLoop=1;jettySize=auto;html=1;entryX=1;entryY=0.25;entryDx=0;entryDy=0;exitX=0;exitY=0.25;exitDx=0;exitDy=0;endArrow=openThin;endFill=0;endSize=14;startSize=14;" edge="1" parent="WIyWlLk6GJQsqaUBKTNV-1" source="_diJCjssBpCCi8u7aCQL-29" target="_diJCjssBpCCi8u7aCQL-0">
          <mxGeometry relative="1" as="geometry" />
        </mxCell>
        <mxCell id="_diJCjssBpCCi8u7aCQL-29" value="CommandQueue" style="swimlane;fontStyle=0;align=center;verticalAlign=top;childLayout=stackLayout;horizontal=1;startSize=26;horizontalStack=0;resizeParent=1;resizeLast=0;collapsible=1;marginBottom=0;rounded=0;shadow=0;strokeWidth=1;" vertex="1" parent="WIyWlLk6GJQsqaUBKTNV-1">
          <mxGeometry x="910" y="50" width="160" height="120" as="geometry">
            <mxRectangle x="340" y="380" width="170" height="26" as="alternateBounds" />
          </mxGeometry>
        </mxCell>
        <mxCell id="_diJCjssBpCCi8u7aCQL-30" value="+ queue: list&#xa;&#xa;&#xa;+ add_command()&#xa;+ process_commands()" style="text;align=left;verticalAlign=top;spacingLeft=4;spacingRight=4;overflow=hidden;rotatable=0;points=[[0,0.5],[1,0.5]];portConstraint=eastwest;" vertex="1" parent="_diJCjssBpCCi8u7aCQL-29">
          <mxGeometry y="26" width="160" height="94" as="geometry" />
        </mxCell>
        <mxCell id="_diJCjssBpCCi8u7aCQL-33" value="" style="endArrow=none;html=1;rounded=0;entryX=1;entryY=0.5;entryDx=0;entryDy=0;exitX=0;exitY=0.5;exitDx=0;exitDy=0;" edge="1" parent="_diJCjssBpCCi8u7aCQL-29">
          <mxGeometry width="50" height="50" relative="1" as="geometry">
            <mxPoint x="-1" y="60.000000000000114" as="sourcePoint" />
            <mxPoint x="159" y="60.000000000000114" as="targetPoint" />
          </mxGeometry>
        </mxCell>
      </root>
    </mxGraphModel>
  </diagram>
</mxfile>
